IKResults
version=1
nRows=11
nColumns=63
inDegrees=yes

Units are S.I. units (second, meters, Newtons, ...)
If the header above contains a line with 'inDegrees', this indicates whether rotational values are in degrees (yes) or radians (no).

endheader
time	pelvis_tilt	pelvis_list	pelvis_rotation	pelvis_tx	pelvis_ty	pelvis_tz	hip_flexion_r	hip_adduction_r	hip_rotation_r	knee_angle_r	knee_angle_r_beta	ankle_angle_r	subtalar_angle_r	mtp_angle_r	hip_flexion_l	hip_adduction_l	hip_rotation_l	knee_angle_l	knee_angle_l_beta	ankle_angle_l	subtalar_angle_l	mtp_angle_l	L5_S1_Flex_Ext	L5_S1_Lat_Bending	L5_S1_axial_rotation	L4_L5_Flex_Ext	L4_L5_Lat_Bending	L4_L5_axial_rotation	L3_L4_Flex_Ext	L3_L4_Lat_Bending	L3_L4_axial_rotation	L2_L3_Flex_Ext	L2_L3_Lat_Bending	L2_L3_axial_rotation	L1_L2_Flex_Ext	L1_L2_Lat_Bending	L1_L2_axial_rotation	L1_T12_Flex_Ext	L1_T12_Lat_Bending	L1_T12_axial_rotation	Abs_r3	Abs_r2	Abs_r1	Abs_t1	Abs_t2	neck_flexion	neck_bending	neck_rotation	arm_flex_r	arm_add_r	arm_rot_r	elbow_flex_r	pro_sup_r	wrist_flex_r	wrist_dev_r	arm_flex_l	arm_add_l	arm_rot_l	elbow_flex_l	pro_sup_l	wrist_flex_l	wrist_dev_l
      0.03333333	    -17.26335172	      2.88926361	     -3.08851220	     -0.65587484	      0.92973026	     -0.29231975	     13.86141316	     -4.82751329	     -5.40743930	      9.63324820	      0.16813190	     23.16105794	      5.22037270	      0.00000000	     11.84188440	     -2.61607684	    -15.96127703	     10.98250653	      0.19168090	     13.13794333	    -12.42744625	      0.00000000	      2.90940934	     -0.22957241	      0.75741672	      5.40306409	     -0.30533130	      0.80475527	      4.77986861	     -0.55818235	      0.80475527	      3.32516394	     -0.55818235	      0.66273963	      2.70167751	     -0.46814405	      0.61540109	      1.66243650	     -0.35560766	      0.56806254	     20.78161999	     -2.59696896	      4.21252458	      0.00000000	      0.00000000	      8.33015972	     -5.87417292	     -6.44051159	    -12.38970265	    -13.90629329	     22.60331456	     34.48353019	     89.99559364	      0.00000000	      0.00000000	    -17.23552479	    -11.74728743	      6.28951182	     31.24585648	     89.99559364	      0.00000000	      0.00000000
      0.06666667	    -17.20773381	      3.03754550	     -2.83573575	     -0.65602608	      0.92999150	     -0.29144682	     13.82483613	     -4.95634527	     -5.55207731	      9.76667465	      0.17046063	     23.31254591	      5.08356522	      0.00000000	     12.28069287	     -2.62383078	    -15.91329010	     11.78068646	      0.20561177	     13.20668696	    -12.48140294	      0.00000000	      2.88363844	     -0.26268864	      0.73628281	      5.35520495	     -0.34937589	      0.78230048	      4.73752960	     -0.63870115	      0.78230048	      3.29571038	     -0.63870115	      0.64424746	      2.67774666	     -0.53567467	      0.59822978	      1.64771101	     -0.40690470	      0.55221211	     20.59754104	     -2.97158639	      4.09498409	      0.00000000	      0.00000000	      8.15623179	     -5.61196056	     -6.60495279	    -12.41411538	    -14.01211125	     22.46969125	     36.26141198	     89.99559364	      0.00000000	      0.00000000	    -17.49262072	    -11.96676017	      6.28857535	     31.19147737	     89.99559364	      0.00000000	      0.00000000
      0.10000000	    -17.50854561	      3.03841961	     -1.91564641	     -0.65653747	      0.92984792	     -0.29034866	     14.15774463	     -4.99668407	     -6.35959430	     10.14696331	      0.17709792	     23.50579579	      4.76381592	      0.00000000	     13.77666058	     -2.90697144	    -15.06160526	     13.64432926	      0.23813847	     13.70720081	    -12.48678714	      0.00000000	      2.89058450	     -0.30439969	      0.63327620	      5.36810448	     -0.40485158	      0.67285596	      4.74894128	     -0.74011740	      0.67285596	      3.30364903	     -0.74011740	      0.55411667	      2.68419677	     -0.62073184	      0.51453691	      1.65167999	     -0.47151512	      0.47495715	     20.64715605	     -3.44343015	      3.52209224	      0.00000000	      0.00000000	      8.35738007	     -5.11649936	     -7.16040329	    -12.78731037	    -14.16421735	     21.46842518	     39.91574119	     89.99559364	      0.00000000	      0.00000000	    -18.09165647	    -12.38294950	      6.42193395	     31.22847607	     89.99559364	      0.00000000	      0.00000000
      0.13333333	    -20.28510255	      2.97681523	      0.04442964	     -0.65569088	      0.92709951	     -0.28979637	     16.76729338	     -5.22631438	     -9.12255223	     10.44829035	      0.18235707	     23.60040017	      5.71590215	      0.00000000	     18.45670263	     -3.08042991	    -12.95789517	     16.38188590	      0.28591785	     13.38940839	    -13.50129722	      0.00000000	      3.36663314	     -0.36958046	      0.41366064	      6.25217440	     -0.49154202	      0.43951443	      5.53104158	     -0.89859794	      0.43951443	      3.84772501	     -0.89859794	      0.36195306	      3.12625553	     -0.75364848	      0.33609927	      1.92369417	     -0.57248014	      0.31024548	     24.04752382	     -4.18076812	      2.30065637	      0.00000000	      0.00000000	      7.06870757	     -4.79215461	     -7.75555929	    -14.87738704	    -13.75844125	     17.84425593	     45.19314917	     89.99559364	      0.00000000	      0.00000000	    -20.24397082	    -13.21676130	      7.06449166	     31.79031024	     89.99559364	      0.00000000	      0.00000000
      0.16666667	    -22.32199378	      2.81872633	      1.91723821	     -0.65650441	      0.92518186	     -0.28883330	     18.90683874	     -5.57722370	    -12.41469780	     11.19273886	      0.19535015	     23.94740673	      7.29677725	      0.00000000	     23.02740889	     -3.21704326	    -10.72974776	     20.08987867	      0.35063453	     13.06661120	    -14.68843415	      0.00000000	      3.66393031	     -0.44015675	      0.20713175	      6.80428497	     -0.58540848	      0.22007748	      6.01947110	     -1.07019713	      0.22007748	      4.18750595	     -1.07019713	      0.18124028	      3.40232568	     -0.89756765	      0.16829454	      2.09356978	     -0.68180281	      0.15534881	     26.17108778	     -4.97914121	      1.15200464	      0.00000000	      0.00000000	      6.49276832	     -4.17864792	     -8.55647961	    -15.77038051	    -13.88082383	     16.72487288	     51.04687830	     89.99559364	      0.00000000	      0.00000000	    -22.28830775	    -13.96671412	      6.61227770	     32.60421153	     89.99559364	      0.00000000	      0.00000000
      0.20000000	    -24.08472278	      2.35753584	      3.98180007	     -0.65817830	      0.92351780	     -0.28808150	     20.80133199	     -5.70921082	    -14.93886783	     11.92090457	      0.20805903	     23.98895525	      7.14580533	      0.00000000	     27.93436514	     -3.36956018	     -8.25874178	     24.64160095	      0.43007707	     12.70358481	    -15.54391291	      0.00000000	      3.88775145	     -0.49484557	     -0.00211240	      7.21994322	     -0.65814461	     -0.00224442	      6.38718686	     -1.20316752	     -0.00224442	      4.44331113	     -1.20316752	     -0.00184835	      3.61016600	     -1.00908909	     -0.00171632	      2.22146118	     -0.76651579	     -0.00158430	     27.76981984	     -5.59779206	     -0.01174852	      0.00000000	      0.00000000	      6.17000581	     -3.62879512	     -9.60407028	    -16.33447512	    -14.01890294	     15.42397302	     57.38373224	     89.99559364	      0.00000000	      0.00000000	    -24.25593974	    -14.86763257	      6.43128919	     33.55935829	     89.99559364	      0.00000000	      0.00000000
      0.23333333	    -26.00745180	      1.75265225	      5.75130158	     -0.66022735	      0.92160257	     -0.28738712	     23.09829659	     -5.85699326	    -17.49049217	     12.94971858	      0.22601523	     24.07066921	      7.24364351	      0.00000000	     33.28995102	     -3.37312057	     -5.78553459	     29.52894706	      0.51537735	     11.89982746	    -16.48880782	      0.00000000	      4.13574702	     -0.53485049	     -0.14180507	      7.68049579	     -0.71135116	     -0.15066788	      6.79461878	     -1.30043549	     -0.15066788	      4.72674527	     -1.30043549	     -0.12407943	      3.84045468	     -1.09066713	     -0.11521662	      2.36316585	     -0.82848342	     -0.10635380	     29.54122738	     -6.05033577	     -0.78867724	      0.00000000	      0.00000000	      5.77948297	     -3.06213240	    -10.74844397	    -16.64218405	    -14.25293471	     14.39243723	     63.78804487	     89.99559364	      0.00000000	      0.00000000	    -26.59365355	    -15.80581277	      5.76133076	     35.00985789	     89.99559364	      0.00000000	      0.00000000
      0.26666667	    -26.62276331	      1.53245091	      6.51064735	     -0.66288019	      0.92110581	     -0.28568418	     24.56823863	     -6.07259164	    -18.83277274	     14.56731697	      0.25424764	     24.34298215	      6.74787720	      0.00000000	     37.17063037	     -3.40009365	     -4.43595331	     34.37578746	      0.59997067	     11.15708302	    -16.84619249	      0.00000000	      4.12613409	     -0.58017411	     -0.08982482	      7.66264362	     -0.77163157	     -0.09543887	      6.77882570	     -1.41063534	     -0.09543887	      4.71575865	     -1.41063534	     -0.07859672	      3.83152812	     -1.18309105	     -0.07298266	      2.35767302	     -0.89868970	     -0.06736861	     29.47256321	     -6.56304560	     -0.49957869	      0.00000000	      0.00000000	      6.08590942	     -1.92248901	    -11.83252908	    -15.87411864	    -14.37198285	     13.70137419	     69.45694011	     89.99559364	      0.00000000	      0.00000000	    -28.52771517	    -17.03685912	      5.32347708	     36.85706934	     89.99559364	      0.00000000	      0.00000000
      0.30000000	    -29.22428480	      0.55929790	      7.62432886	     -0.66319253	      0.91887390	     -0.28663205	     27.64826052	     -6.08349522	    -21.18899328	     15.59272582	      0.27214441	     23.96301006	      6.75360438	      0.00000000	     42.69617909	     -3.11731240	     -2.12700847	     38.35483140	      0.66941809	      9.79008056	    -17.36745800	      0.00000000	      4.55659156	     -0.56605447	     -0.10363442	      8.46204619	     -0.75285244	     -0.11011157	      7.48602427	     -1.37630483	     -0.11011157	      5.20772849	     -1.37630483	     -0.09068012	      4.23125092	     -1.15429827	     -0.08420297	      2.60363642	     -0.87681837	     -0.07772582	     32.54727785	     -6.40332133	     -0.57638356	      0.00000000	      0.00000000	      4.54010170	     -1.83580852	    -12.92257123	    -16.71336482	    -14.68795919	     12.19427350	     75.48617804	     89.99559364	      0.00000000	      0.00000000	    -31.91672431	    -17.67514955	      3.55985170	     39.01098336	     89.99559364	      0.00000000	      0.00000000
      0.33333333	    -30.43061168	      0.19745291	      7.64320392	     -0.66320148	      0.91851676	     -0.28683038	     29.78179442	     -6.18547200	    -21.72613878	     17.21918643	      0.30053150	     23.78325151	      5.75823767	      0.00000000	     45.98513309	     -2.96226380	     -1.16797504	     41.45692513	      0.72355984	      8.98746368	    -17.25727977	      0.00000000	      4.73058231	     -0.56859646	      0.07671535	      8.78516441	     -0.75623329	      0.08151005	      7.77187368	     -1.38248543	      0.08151005	      5.40658252	     -1.38248543	      0.06712593	      4.39281873	     -1.15948190	      0.06233122	      2.70305473	     -0.88075592	      0.05753651	     33.79007637	     -6.43207687	      0.42666774	      0.00000000	      0.00000000	      3.47133208	     -1.24219697	    -13.91366291	    -16.82244942	    -14.58805337	     10.71866462	     80.18036122	     89.99559364	      0.00000000	      0.00000000	    -34.72340873	    -18.58771400	      2.23616862	     41.39225534	     89.99559364	      0.00000000	      0.00000000
      0.36666667	    -31.67886134	      0.06687358	      7.10108734	     -0.66178150	      0.91877439	     -0.28758197	     32.14396161	     -6.27507180	    -20.98882301	     19.06367221	      0.33272385	     23.22114007	      3.83905104	      0.00000000	     48.25356023	     -2.84383064	     -0.93079346	     43.18324808	      0.75368986	      8.62592300	    -16.81736715	      0.00000000	      4.94787037	     -0.57194220	      0.33540680	      9.18869006	     -0.76068312	      0.35636972	      8.12885623	     -1.39062026	      0.35636972	      5.65492104	     -1.39062026	      0.29348095	      4.59459242	     -1.16630453	      0.27251802	      2.82721313	     -0.88593846	      0.25155510	     35.34214324	     -6.46992452	      1.86543198	      0.00000000	      0.00000000	      1.88957861	     -0.60227621	    -14.58651969	    -17.24041422	    -14.18355666	      9.12603306	     83.78674187	     89.99559364	      0.00000000	      0.00000000	    -37.74566818	    -19.44713156	      0.75241618	     44.16698913	     89.99559364	      0.00000000	      0.00000000
